<svg width="246" height="144" viewBox="0 0 246 144" fill="none" xmlns="http://www.w3.org/2000/svg">
<path d="M111.124 95.4221V82.3642H111.681V89.5025C111.995 88.8641 112.482 88.3534 113.144 87.9704C113.817 87.5873 114.513 87.3958 115.233 87.3958C116.382 87.3958 117.357 87.8021 118.158 88.6146C118.971 89.4155 119.377 90.3788 119.377 91.5047C119.377 92.6306 118.971 93.5998 118.158 94.4123C117.357 95.2132 116.382 95.6136 115.233 95.6136C114.537 95.6136 113.858 95.4279 113.196 95.0565C112.534 94.6735 112.03 94.1628 111.681 93.5244V95.4221H111.124ZM111.647 91.5221C111.647 92.4971 112.001 93.3445 112.709 94.0641C113.428 94.7721 114.276 95.1261 115.251 95.1261C116.237 95.1261 117.079 94.7721 117.775 94.0641C118.472 93.3445 118.82 92.4971 118.82 91.5221C118.82 90.5355 118.466 89.6824 117.758 88.9628C117.061 88.2431 116.226 87.8833 115.251 87.8833C114.276 87.8833 113.428 88.2489 112.709 88.9802C112.001 89.6998 111.647 90.5471 111.647 91.5221ZM124.954 95.631H124.797C123.695 95.631 122.731 95.219 121.907 94.3949C121.095 93.5592 120.689 92.59 120.689 91.4873C120.689 90.3846 121.095 89.4329 121.907 88.632C122.72 87.8195 123.724 87.4132 124.919 87.4132C126.115 87.4132 127.142 87.8891 128.001 88.8409L122.534 94.2382C123.288 94.8418 124.014 95.1435 124.71 95.1435C125.407 95.1435 126.028 94.9869 126.573 94.6735C127.13 94.3485 127.589 93.919 127.949 93.3851V94.273C127.125 95.1784 126.126 95.631 124.954 95.631ZM124.763 87.9007C123.846 87.9007 123.027 88.2606 122.308 88.9802C121.6 89.6882 121.246 90.5065 121.246 91.4351C121.246 92.3637 121.553 93.1761 122.168 93.8726L127.235 88.8409C126.515 88.2141 125.691 87.9007 124.763 87.9007ZM137.474 87.5873V95.4221H136.917V93.4721C136.592 94.1337 136.105 94.6561 135.455 95.0391C134.805 95.4221 134.108 95.6136 133.365 95.6136C132.228 95.6136 131.253 95.2132 130.44 94.4123C129.628 93.5998 129.222 92.6306 129.222 91.5047C129.222 90.3788 129.628 89.4155 130.44 88.6146C131.253 87.8021 132.228 87.3958 133.365 87.3958C134.108 87.3958 134.816 87.5931 135.49 87.9878C136.174 88.3824 136.65 88.9047 136.917 89.5547V87.5873H137.474ZM129.779 91.5221C129.779 92.4971 130.133 93.3445 130.841 94.0641C131.561 94.7721 132.408 95.1261 133.383 95.1261C134.369 95.1261 135.211 94.7721 135.907 94.0641C136.604 93.3445 136.952 92.4971 136.952 91.5221C136.952 90.5355 136.598 89.6824 135.89 88.9628C135.194 88.2431 134.358 87.8833 133.383 87.8833C132.408 87.8833 131.561 88.2489 130.841 88.9802C130.133 89.6998 129.779 90.5471 129.779 91.5221ZM145.872 87.5873H146.429V95.4221H145.872V93.8378C145.28 95.0217 144.27 95.6136 142.843 95.6136C141.868 95.6136 141.049 95.277 140.388 94.6038C139.726 93.9306 139.395 93.1123 139.395 92.1489V87.5873H139.953V92.1489C139.953 92.9498 140.231 93.6462 140.788 94.2382C141.357 94.8302 142.042 95.1261 142.843 95.1261C143.644 95.1261 144.346 94.8302 144.949 94.2382C145.565 93.6462 145.872 92.9498 145.872 92.1489V87.5873ZM151.146 95.0391V95.5266C150.322 95.5266 149.62 95.2538 149.039 94.7083C148.459 94.1511 148.169 93.4431 148.169 92.5842V84.436H148.726V87.6048H151.129V88.0922H148.726V92.5842C148.726 93.2922 148.958 93.8784 149.422 94.3427C149.898 94.8069 150.473 95.0391 151.146 95.0391ZM158.845 87.5873H159.402V95.1784C159.402 96.2114 159.042 97.0877 158.323 97.8074C157.603 98.527 156.721 98.8868 155.676 98.8868C154.423 98.8868 153.43 98.4051 152.699 97.4418L152.734 96.5712C153.059 97.1284 153.483 97.5694 154.005 97.8944C154.539 98.231 155.096 98.3993 155.676 98.3993C156.535 98.3993 157.278 98.0859 157.905 97.4592C158.532 96.844 158.845 96.1011 158.845 95.2306V93.9074C158.276 95.0449 157.284 95.6136 155.868 95.6136C154.904 95.6136 154.08 95.277 153.396 94.6038C152.711 93.919 152.368 93.1007 152.368 92.1489V87.5873H152.925V92.1489C152.925 92.9498 153.216 93.6462 153.796 94.2382C154.388 94.8302 155.084 95.1261 155.885 95.1261C156.686 95.1261 157.377 94.8302 157.957 94.2382C158.549 93.6462 158.845 92.9498 158.845 92.1489V87.5873ZM170.38 95.0913V95.5788C169.556 95.5788 168.854 95.306 168.273 94.7605C167.693 94.2034 167.403 93.4953 167.403 92.6364V82.3642H167.96V92.6364C167.96 93.3445 168.192 93.9306 168.656 94.3949C169.132 94.8592 169.707 95.0913 170.38 95.0913ZM178.893 87.5873V95.4221H178.335V93.4721C178.01 94.1337 177.523 94.6561 176.873 95.0391C176.223 95.4221 175.527 95.6136 174.784 95.6136C173.646 95.6136 172.671 95.2132 171.859 94.4123C171.046 93.5998 170.64 92.6306 170.64 91.5047C170.64 90.3788 171.046 89.4155 171.859 88.6146C172.671 87.8021 173.646 87.3958 174.784 87.3958C175.527 87.3958 176.235 87.5931 176.908 87.9878C177.593 88.3824 178.069 88.9047 178.335 89.5547V87.5873H178.893ZM171.197 91.5221C171.197 92.4971 171.551 93.3445 172.259 94.0641C172.979 94.7721 173.826 95.1261 174.801 95.1261C175.788 95.1261 176.629 94.7721 177.326 94.0641C178.022 93.3445 178.37 92.4971 178.37 91.5221C178.37 90.5355 178.016 89.6824 177.308 88.9628C176.612 88.2431 175.776 87.8833 174.801 87.8833C173.826 87.8833 172.979 88.2489 172.259 88.9802C171.551 89.6998 171.197 90.5471 171.197 91.5221ZM180.988 95.4221V82.3642H181.545V89.5025C181.858 88.8641 182.346 88.3534 183.007 87.9704C183.681 87.5873 184.377 87.3958 185.097 87.3958C186.246 87.3958 187.221 87.8021 188.022 88.6146C188.834 89.4155 189.24 90.3788 189.24 91.5047C189.24 92.6306 188.834 93.5998 188.022 94.4123C187.221 95.2132 186.246 95.6136 185.097 95.6136C184.4 95.6136 183.721 95.4279 183.06 95.0565C182.398 94.6735 181.893 94.1628 181.545 93.5244V95.4221H180.988ZM181.51 91.5221C181.51 92.4971 181.864 93.3445 182.572 94.0641C183.292 94.7721 184.139 95.1261 185.114 95.1261C186.101 95.1261 186.942 94.7721 187.639 94.0641C188.335 93.3445 188.683 92.4971 188.683 91.5221C188.683 90.5355 188.329 89.6824 187.621 88.9628C186.925 88.2431 186.089 87.8833 185.114 87.8833C184.139 87.8833 183.292 88.2489 182.572 88.9802C181.864 89.6998 181.51 90.5471 181.51 91.5221ZM194.539 95.6136C193.425 95.6136 192.467 95.2016 191.666 94.3775C190.865 93.5418 190.465 92.5726 190.465 91.4699C190.465 90.3672 190.871 89.4155 191.684 88.6146C192.496 87.8021 193.471 87.3958 194.609 87.3958C195.758 87.3958 196.733 87.8021 197.534 88.6146C198.346 89.4155 198.752 90.373 198.752 91.4873C198.752 92.59 198.358 93.5534 197.569 94.3775C196.779 95.2016 195.822 95.6136 194.696 95.6136H194.539ZM198.195 91.5221C198.195 90.5355 197.841 89.6824 197.133 88.9628C196.437 88.2431 195.601 87.8833 194.626 87.8833C193.651 87.8833 192.804 88.2489 192.084 88.9802C191.376 89.6998 191.022 90.5471 191.022 91.5221C191.022 92.4971 191.376 93.3445 192.084 94.0641C192.804 94.7721 193.651 95.1261 194.626 95.1261C195.613 95.1261 196.454 94.7721 197.151 94.0641C197.847 93.3445 198.195 92.4971 198.195 91.5221ZM204.984 88.6494C204.473 88.1387 203.91 87.8833 203.295 87.8833C202.68 87.8833 202.134 88.1155 201.658 88.5797C201.194 89.044 200.962 89.5838 200.962 90.1989V95.4221H200.405V87.5873H200.962V88.7539C201.171 88.3592 201.496 88.0342 201.937 87.7789C202.378 87.5235 202.871 87.3958 203.417 87.3958C203.962 87.3958 204.485 87.5815 204.984 87.953V88.6494ZM214.275 87.5873V95.4221H213.718V93.4721C213.393 94.1337 212.905 94.6561 212.255 95.0391C211.605 95.4221 210.909 95.6136 210.166 95.6136C209.029 95.6136 208.054 95.2132 207.241 94.4123C206.429 93.5998 206.022 92.6306 206.022 91.5047C206.022 90.3788 206.429 89.4155 207.241 88.6146C208.054 87.8021 209.029 87.3958 210.166 87.3958C210.909 87.3958 211.617 87.5931 212.29 87.9878C212.975 88.3824 213.451 88.9047 213.718 89.5547V87.5873H214.275ZM206.579 91.5221C206.579 92.4971 206.933 93.3445 207.641 94.0641C208.361 94.7721 209.208 95.1261 210.183 95.1261C211.17 95.1261 212.012 94.7721 212.708 94.0641C213.404 93.3445 213.753 92.4971 213.753 91.5221C213.753 90.5355 213.399 89.6824 212.691 88.9628C211.994 88.2431 211.158 87.8833 210.183 87.8833C209.208 87.8833 208.361 88.2489 207.641 88.9802C206.933 89.6998 206.579 90.5471 206.579 91.5221ZM219.173 95.0391V95.5266C218.349 95.5266 217.647 95.2538 217.066 94.7083C216.486 94.1511 216.196 93.4431 216.196 92.5842V84.436H216.753V87.6048H219.156V88.0922H216.753V92.5842C216.753 93.2922 216.985 93.8784 217.45 94.3427C217.925 94.8069 218.5 95.0391 219.173 95.0391ZM224.209 95.6136C223.094 95.6136 222.137 95.2016 221.336 94.3775C220.535 93.5418 220.134 92.5726 220.134 91.4699C220.134 90.3672 220.541 89.4155 221.353 88.6146C222.166 87.8021 223.141 87.3958 224.278 87.3958C225.427 87.3958 226.402 87.8021 227.203 88.6146C228.016 89.4155 228.422 90.373 228.422 91.4873C228.422 92.59 228.027 93.5534 227.238 94.3775C226.449 95.2016 225.491 95.6136 224.365 95.6136H224.209ZM227.865 91.5221C227.865 90.5355 227.511 89.6824 226.803 88.9628C226.106 88.2431 225.271 87.8833 224.296 87.8833C223.321 87.8833 222.473 88.2489 221.754 88.9802C221.046 89.6998 220.692 90.5471 220.692 91.5221C220.692 92.4971 221.046 93.3445 221.754 94.0641C222.473 94.7721 223.321 95.1261 224.296 95.1261C225.282 95.1261 226.124 94.7721 226.82 94.0641C227.517 93.3445 227.865 92.4971 227.865 91.5221ZM234.653 88.6494C234.142 88.1387 233.579 87.8833 232.964 87.8833C232.349 87.8833 231.804 88.1155 231.328 88.5797C230.863 89.044 230.631 89.5838 230.631 90.1989V95.4221H230.074V87.5873H230.631V88.7539C230.84 88.3592 231.165 88.0342 231.606 87.7789C232.047 87.5235 232.541 87.3958 233.086 87.3958C233.632 87.3958 234.154 87.5815 234.653 87.953V88.6494ZM242.43 87.5873H242.987V95.1784C242.987 96.2114 242.627 97.0877 241.907 97.8074C241.188 98.527 240.306 98.8868 239.261 98.8868C238.007 98.8868 237.015 98.4051 236.284 97.4418L236.319 96.5712C236.644 97.1284 237.067 97.5694 237.59 97.8944C238.123 98.231 238.681 98.3993 239.261 98.3993C240.12 98.3993 240.863 98.0859 241.49 97.4592C242.116 96.844 242.43 96.1011 242.43 95.2306V93.9074C241.861 95.0449 240.869 95.6136 239.452 95.6136C238.489 95.6136 237.665 95.277 236.98 94.6038C236.295 93.919 235.953 93.1007 235.953 92.1489V87.5873H236.51V92.1489C236.51 92.9498 236.8 93.6462 237.381 94.2382C237.973 94.8302 238.669 95.1261 239.47 95.1261C240.271 95.1261 240.961 94.8302 241.542 94.2382C242.134 93.6462 242.43 92.9498 242.43 92.1489V87.5873Z" fill="black"/>
<path d="M64.5301 47.7807L79.4535 78.3438H78.0606L72.4096 66.9622H56.4516L50.8802 78.3438H49.6465L64.5301 47.7807ZM64.4107 50.5266L56.9689 65.8081H71.9321L64.4107 50.5266ZM83.6159 48.497H94.3209V49.6511H84.9291V65.8877H92.7689V67.0418H84.9291V77.1897H94.3209V78.3438H83.6159V48.497ZM110.324 52.7153C109.714 51.601 108.878 50.7255 107.817 50.0888C106.783 49.4521 105.615 49.1337 104.315 49.1337C103.015 49.1337 101.901 49.5449 100.972 50.3674C100.07 51.1633 99.6193 52.2643 99.6193 53.6704V53.8694C99.6193 55.5408 100.548 57.0663 102.405 58.4459C103.201 59.0296 104.09 59.6132 105.071 60.1969C106.079 60.7541 107.074 61.3643 108.056 62.0275C109.064 62.6642 109.966 63.354 110.762 64.0969C111.585 64.8132 112.248 65.702 112.752 66.7632C113.283 67.8244 113.548 68.9918 113.548 70.2652V70.6632C113.548 73.1836 112.686 75.1866 110.961 76.6723C109.263 78.158 107.154 78.9009 104.634 78.9009C101.317 78.9009 98.7438 77.5346 96.9132 74.8019V72.653C97.603 74.1652 98.6112 75.3989 99.9377 76.354C101.291 77.2825 102.962 77.7468 104.952 77.7468C106.942 77.7468 108.666 77.1101 110.125 75.8366C111.585 74.5632 112.314 72.8652 112.314 70.7428V70.504C112.314 69.1775 111.969 67.9703 111.279 66.8826C110.59 65.7683 109.727 64.8663 108.693 64.1765C107.658 63.4602 106.531 62.7173 105.31 61.9479C104.09 61.1785 102.962 60.4622 101.927 59.799C100.893 59.1357 100.031 58.3 99.3408 57.2918C98.651 56.2837 98.3061 55.1827 98.3061 53.9888V53.7102C98.3061 51.8531 98.903 50.4337 100.097 49.4521C101.291 48.4704 102.763 47.9796 104.514 47.9796C106.955 47.9796 108.892 48.8817 110.324 50.6857V52.7153ZM128.142 48.497V49.6511H121.337V78.3438H120.024V49.6511H113.139V48.497H128.142ZM153.691 48.497H155.004V78.3438H153.691V66.9622H133.236V78.3438H131.923V48.497H133.236V65.8081H153.691V48.497ZM160.992 48.497H171.697V49.6511H162.305V65.8877H170.145V67.0418H162.305V77.1897H171.697V78.3438H160.992V48.497ZM188.496 48.497V49.6511H181.691V78.3438H180.378V49.6511H173.494V48.497H188.496ZM192.476 48.497H193.789V78.3438H192.476V48.497ZM214.497 78.7815H214.059C211.327 78.7815 208.78 78.0652 206.419 76.6325C204.057 75.1999 202.187 73.303 200.807 70.9418C199.454 68.554 198.778 66.0203 198.778 63.3408C198.778 59.1224 200.303 55.501 203.354 52.4765C206.405 49.4255 210.053 47.9 214.298 47.9C217.137 47.9 219.83 48.6429 222.377 50.1286V51.601C219.883 49.9031 217.19 49.0541 214.298 49.0541C210.398 49.0541 207.055 50.4602 204.27 53.2725C201.484 56.0582 200.091 59.4143 200.091 63.3408C200.091 67.2408 201.484 70.5969 204.27 73.4091C207.055 76.2213 210.398 77.6274 214.298 77.6274C217.19 77.6274 219.883 76.7785 222.377 75.0805V76.5529C219.962 78.0386 217.336 78.7815 214.497 78.7815ZM239.777 52.7153C239.167 51.601 238.331 50.7255 237.27 50.0888C236.235 49.4521 235.068 49.1337 233.768 49.1337C232.468 49.1337 231.354 49.5449 230.425 50.3674C229.523 51.1633 229.072 52.2643 229.072 53.6704V53.8694C229.072 55.5408 230.001 57.0663 231.858 58.4459C232.654 59.0296 233.542 59.6132 234.524 60.1969C235.532 60.7541 236.527 61.3643 237.509 62.0275C238.517 62.6642 239.419 63.354 240.215 64.0969C241.037 64.8132 241.7 65.702 242.205 66.7632C242.735 67.8244 243 68.9918 243 70.2652V70.6632C243 73.1836 242.138 75.1866 240.414 76.6723C238.716 78.158 236.607 78.9009 234.086 78.9009C230.77 78.9009 228.196 77.5346 226.366 74.8019V72.653C227.056 74.1652 228.064 75.3989 229.39 76.354C230.743 77.2825 232.415 77.7468 234.405 77.7468C236.394 77.7468 238.119 77.1101 239.578 75.8366C241.037 74.5632 241.767 72.8652 241.767 70.7428V70.504C241.767 69.1775 241.422 67.9703 240.732 66.8826C240.042 65.7683 239.18 64.8663 238.145 64.1765C237.111 63.4602 235.983 62.7173 234.763 61.9479C233.542 61.1785 232.415 60.4622 231.38 59.799C230.345 59.1357 229.483 58.3 228.793 57.2918C228.104 56.2837 227.759 55.1827 227.759 53.9888V53.7102C227.759 51.8531 228.356 50.4337 229.549 49.4521C230.743 48.4704 232.216 47.9796 233.967 47.9796C236.408 47.9796 238.344 48.8817 239.777 50.6857V52.7153Z" fill="black"/>
<path d="M67.3776 89.9549C62.2373 93.6857 56.9312 97.2507 51.4593 100.484C46.1532 103.718 39.9352 107.2 33.5513 105.293C27.0845 103.303 24.5143 96.4217 21.5296 91.0327C18.545 85.3949 15.4774 79.8401 12.5756 74.1195C9.01059 67.0723 5.943 59.4448 5.27974 51.4857C5.11392 49.9104 5.19683 48.2523 5.03101 46.677C4.8652 41.8684 2.54378 37.5572 1.13435 32.9973C-1.85033 22.0535 1.54889 10.6122 5.61137 0.331638L5.69428 0C6.19172 0.331631 6.77208 0.746177 7.18662 1.16072C18.8766 11.6071 31.4786 21.0586 44.4122 29.7639L44.578 29.9297C44.3293 30.0126 43.9976 30.0955 43.7489 30.1784C40.3497 30.7588 36.7847 31.3391 33.6342 32.7486C31.6444 33.6605 29.8204 34.4896 28.6597 36.1478C27.9965 37.0597 28.5768 37.9717 29.4888 38.5521C31.7273 39.7128 34.4633 38.3034 36.453 37.2256C40.4326 35.4845 44.9096 34.3238 49.3037 34.7383C51.2106 37.2256 53.3662 39.7128 55.1902 42.2L55.356 42.3658C54.9415 42.4487 54.5269 42.4488 54.1124 42.6146C50.9619 43.4436 48.2259 45.1847 45.1583 46.3454C43.0857 46.9258 40.3497 46.677 38.5257 46.3454C37.1992 46.2625 35.7898 46.0967 34.4633 45.9309C30.4008 45.848 26.3383 46.5941 22.3587 47.0087C18.2962 47.4232 14.2338 47.6719 10.2542 48.3352C8.92768 48.5839 7.60115 48.9155 6.27463 49.0814L6.44045 48.0865C8.43023 49.2472 10.7516 48.9984 12.9073 48.5839C14.3996 48.4181 15.4774 47.589 16.6381 46.8429C17.633 46.3454 18.7108 47.2574 19.0424 48.1694L18.7937 48.2523C19.1253 44.4385 18.3792 40.3761 15.3116 37.8888C12.8243 35.9819 9.1764 34.5725 5.86009 34.4896C4.61648 34.4067 2.95832 34.987 2.46088 36.1478C2.29506 36.7281 2.95832 37.2256 3.45577 37.5572C5.19683 38.7179 7.18661 39.2153 9.1764 39.6299C12.6585 40.3761 15.8919 41.8684 18.7937 43.8582C19.7886 47.0087 20.4518 50.1592 20.6177 53.4755C20.7835 57.538 20.2031 61.6004 19.457 65.6629C19.1253 67.1552 18.2133 68.7305 18.9595 70.2228C20.1202 72.2955 22.8562 73.0417 25.0947 72.793C26.587 72.5442 27.9964 71.6323 28.5768 70.2228L29.1572 70.6374C28.411 71.2177 27.499 71.5494 26.587 71.5494C25.9238 71.1348 26.1725 70.3057 26.6699 69.8912C27.0016 69.6425 27.4161 69.4767 27.8306 69.3937C29.2401 69.0621 30.8982 68.8963 32.1418 69.8912C32.7222 70.3886 33.0538 71.0519 33.7171 71.3006C34.9607 71.9639 36.6189 71.0519 37.1163 69.8083C37.6967 68.4818 37.1992 66.9065 36.6189 65.7458C36.0385 71.0519 35.3752 78.5965 34.9607 83.9026L34.8778 83.8197C36.5359 84.0684 38.1941 84.0684 39.7693 83.9026C41.5933 83.8197 43.4173 83.4052 45.2413 82.9077C42.0908 86.5557 38.5257 90.0378 33.8829 91.613C30.8982 92.6908 27.0016 92.7737 24.6801 90.2865C23.4365 89.0429 23.1049 87.3018 23.2707 85.6437C25.1776 85.4778 27.0016 84.7317 28.9084 84.2342C30.8153 83.6539 32.9709 83.3222 34.9607 83.8197C34.2974 84.6488 33.2196 85.1462 32.2247 85.395C30.6495 85.8095 28.411 85.6437 26.7528 85.7266C25.3434 85.6437 23.7682 86.0582 22.5245 85.2291C21.2809 84.2342 21.2809 82.2444 22.0271 81.0008C23.022 79.1769 25.5921 78.5965 27.3332 79.8401H26.8357C27.499 79.2598 28.3281 78.7623 29.1572 78.4307C31.8102 77.4358 34.5462 78.7623 36.8676 79.8401C38.4428 80.5863 39.6864 81.4983 41.4275 81.5812C42.5882 81.8299 44.578 81.6641 44.9096 83.0735C44.9925 83.4881 44.9096 83.9026 44.9925 84.4C46.1532 92.8566 49.4695 100.816 53.4491 108.277C57.0971 119.636 57.3458 131.74 57.5945 143.596C57.2629 133.481 56.9312 123.201 54.5269 113.252C54.1124 109.687 52.4542 106.951 50.9619 103.8C49.5525 100.733 48.3918 97.4995 47.3139 94.2661C46.2361 91.0327 45.4071 87.7164 44.8267 84.4C44.7438 83.9855 44.6609 83.571 44.4951 83.1564C44.1635 82.2444 43.3344 82.4103 42.5053 82.3274C41.1788 82.2444 39.9352 82.3274 38.6086 81.9128C36.2872 80.9179 33.9658 80.0059 31.5615 79.4256C30.0691 79.011 28.411 79.3427 27.1674 80.3376L26.9186 80.5034L26.6699 80.3376C25.4263 79.4256 23.2707 79.7572 22.5245 81.2496C21.6955 82.5761 22.1929 84.8146 23.8511 84.7317C25.3434 84.8146 27.6648 84.6488 29.1572 84.6488C30.8982 84.6488 32.7222 84.8146 34.1316 83.571L34.2145 83.9026C30.4837 82.8248 26.7528 85.2291 23.1049 85.7266L23.2707 85.5608C23.1049 87.8822 24.3485 90.2036 26.7528 90.4523C33.6342 92.0275 40.0181 87.9651 44.3293 82.8248L44.4951 83.1564C41.2617 84.0684 37.8625 84.2342 34.6291 83.7368H34.5462V83.6539C35.2094 78.5136 35.8727 70.6374 36.453 65.4971C37.1992 66.7407 37.6137 68.2331 37.0334 69.6425C36.5359 70.969 34.7949 71.9639 33.4684 71.3006C32.8051 70.969 32.3906 70.3057 31.8102 69.8912C31.2299 69.4767 30.5666 69.3938 29.9033 69.4767C28.9913 69.5596 27.4161 69.8912 26.8357 70.6374L26.587 70.5545C27.7477 70.5545 28.8255 69.7254 29.7375 69.0621L29.1572 70.3057C27.2503 74.534 20.5348 73.9537 18.4621 70.2228C17.633 68.5647 18.6279 66.9065 19.0424 65.4142C19.2082 64.668 19.3741 63.8389 19.5399 63.0099C20.0373 59.7765 20.5348 56.5431 20.3689 53.3097C20.2031 50.0763 19.457 46.8429 18.3792 43.8582C16.3065 43.3607 13.4047 41.3709 10.9175 40.7077C8.01569 39.7957 4.61648 39.3812 2.37797 37.0597C1.46598 36.0648 2.79251 34.9041 3.70449 34.5725C5.03102 33.9092 6.44045 34.2409 7.84988 34.4067C16.0577 35.8991 20.286 39.3811 19.0424 48.1694L18.9595 48.501L18.7108 48.1694C18.0475 47.2574 17.1355 46.8429 16.3065 47.8377C14.4825 49.5788 11.8294 49.9104 9.42512 49.6617C8.26442 49.4959 7.0208 49.3301 5.86009 48.8326L4.20194 47.9207C6.10882 47.7548 8.0986 47.6719 10.0884 47.6719C14.1509 47.5061 18.2133 46.9258 22.1929 46.5112C24.846 46.1796 27.5819 46.0967 30.3179 45.7651C32.9709 45.3505 35.7069 44.8531 38.4428 44.6873C40.5155 44.7702 42.6711 44.7702 44.578 44.3556C47.3139 43.6924 50.1328 42.7804 52.8688 42.3658C53.4491 42.2829 54.444 42.0342 54.9415 41.8684L54.8586 42.1171C52.9517 39.6299 51.1277 36.8939 49.2208 34.4896C47.4798 34.4896 45.7387 34.4896 43.9976 34.8213C41.4275 35.3187 38.9403 36.2307 36.6189 37.4743C35.0436 38.3863 33.5513 39.3812 31.7273 39.6299C29.8204 40.0444 27.2503 38.9666 26.9186 36.7281C26.8357 35.07 28.0794 33.8263 29.323 32.9144C33.6342 30.4271 38.7745 30.0126 43.5831 29.3493C43.8318 29.3493 43.9976 29.4322 44.2464 29.4322L44.1635 29.598C31.7273 20.9756 19.6228 11.69 7.76697 2.23851L6.60626 1.24362C6.19172 0.911985 5.86009 0.580356 5.44555 0.248726L5.86009 0.165813C1.6318 10.1976 -1.51869 21.6389 1.30017 32.4998C2.62669 37.0597 5.03102 41.3709 5.11392 46.2625C5.19683 47.8377 5.19683 49.413 5.27974 50.9883C5.86009 58.9474 8.92768 66.4091 12.4098 73.4562C15.2287 79.0939 18.2962 84.7317 21.2809 90.3694C24.2656 95.6755 26.7528 102.557 33.1367 104.547C39.4377 106.371 45.6558 102.971 50.9619 99.8209C56.9312 97.2507 62.3202 93.2712 67.3776 89.9549Z" fill="black"/>
</svg>
