<svg width="246" height="145" viewBox="0 0 246 145" fill="none" xmlns="http://www.w3.org/2000/svg">
<path d="M111.603 95.7603V82.646H112.163V89.8151C112.478 89.174 112.967 88.6611 113.632 88.2764C114.308 87.8917 115.007 87.6993 115.73 87.6993C116.884 87.6993 117.863 88.1073 118.668 88.9233C119.484 89.7277 119.892 90.6952 119.892 91.826C119.892 92.9567 119.484 93.9301 118.668 94.7461C117.863 95.5504 116.884 95.9526 115.73 95.9526C115.031 95.9526 114.349 95.7661 113.684 95.3931C113.02 95.0084 112.513 94.4955 112.163 93.8543V95.7603H111.603ZM112.128 91.8435C112.128 92.8227 112.483 93.6736 113.195 94.3964C113.917 95.1075 114.768 95.463 115.747 95.463C116.738 95.463 117.583 95.1075 118.283 94.3964C118.982 93.6736 119.332 92.8227 119.332 91.8435C119.332 90.8526 118.976 89.9958 118.265 89.2731C117.566 88.5503 116.727 88.1889 115.747 88.1889C114.768 88.1889 113.917 88.5561 113.195 89.2905C112.483 90.0133 112.128 90.8643 112.128 91.8435ZM125.493 95.9701H125.335C124.228 95.9701 123.261 95.5563 122.433 94.7286C121.617 93.8893 121.209 92.9159 121.209 91.8085C121.209 90.7011 121.617 89.7452 122.433 88.9408C123.249 88.1248 124.257 87.7168 125.458 87.7168C126.659 87.7168 127.69 88.1948 128.553 89.1507L123.062 94.5712C123.82 95.1774 124.549 95.4805 125.248 95.4805C125.947 95.4805 126.571 95.3231 127.119 95.0084C127.679 94.682 128.139 94.2507 128.5 93.7144V94.6062C127.673 95.5155 126.67 95.9701 125.493 95.9701ZM125.301 88.2064C124.38 88.2064 123.558 88.5678 122.835 89.2905C122.124 90.0016 121.768 90.8235 121.768 91.756C121.768 92.6886 122.077 93.5046 122.695 94.204L127.783 89.1507C127.061 88.5212 126.233 88.2064 125.301 88.2064ZM138.067 87.8917V95.7603H137.508V93.8019C137.181 94.4663 136.692 94.9909 136.039 95.3756C135.386 95.7603 134.687 95.9526 133.941 95.9526C132.798 95.9526 131.819 95.5504 131.003 94.7461C130.187 93.9301 129.779 92.9567 129.779 91.826C129.779 90.6952 130.187 89.7277 131.003 88.9233C131.819 88.1073 132.798 87.6993 133.941 87.6993C134.687 87.6993 135.398 87.8975 136.074 88.2939C136.762 88.6902 137.239 89.2148 137.508 89.8676V87.8917H138.067ZM130.338 91.8435C130.338 92.8227 130.694 93.6736 131.405 94.3964C132.128 95.1075 132.979 95.463 133.958 95.463C134.949 95.463 135.794 95.1075 136.493 94.3964C137.193 93.6736 137.543 92.8227 137.543 91.8435C137.543 90.8526 137.187 89.9958 136.476 89.2731C135.777 88.5503 134.937 88.1889 133.958 88.1889C132.979 88.1889 132.128 88.5561 131.405 89.2905C130.694 90.0133 130.338 90.8643 130.338 91.8435ZM146.501 87.8917H147.061V95.7603H146.501V94.1691C145.907 95.3581 144.892 95.9526 143.459 95.9526C142.479 95.9526 141.658 95.6145 140.993 94.9384C140.329 94.2623 139.996 93.4405 139.996 92.4729V87.8917H140.556V92.4729C140.556 93.2773 140.836 93.9767 141.395 94.5712C141.966 95.1657 142.654 95.463 143.459 95.463C144.263 95.463 144.968 95.1657 145.574 94.5712C146.192 93.9767 146.501 93.2773 146.501 92.4729V87.8917ZM151.798 95.3756V95.8652C150.97 95.8652 150.265 95.5912 149.682 95.0433C149.099 94.4838 148.808 93.7727 148.808 92.9101V84.7268H149.367V87.9092H151.78V88.3988H149.367V92.9101C149.367 93.6212 149.6 94.2099 150.067 94.6761C150.544 95.1424 151.122 95.3756 151.798 95.3756ZM159.53 87.8917H160.09V95.5155C160.09 96.5529 159.728 97.4331 159.005 98.1558C158.283 98.8785 157.397 99.2399 156.348 99.2399C155.089 99.2399 154.092 98.7561 153.358 97.7886L153.393 96.9143C153.719 97.4739 154.144 97.9168 154.669 98.2432C155.205 98.5813 155.765 98.7503 156.348 98.7503C157.21 98.7503 157.956 98.4356 158.586 97.8061C159.215 97.1883 159.53 96.4422 159.53 95.5679V94.239C158.959 95.3814 157.962 95.9526 156.54 95.9526C155.572 95.9526 154.745 95.6145 154.057 94.9384C153.369 94.2507 153.025 93.4288 153.025 92.4729V87.8917H153.585V92.4729C153.585 93.2773 153.876 93.9767 154.459 94.5712C155.054 95.1657 155.753 95.463 156.557 95.463C157.362 95.463 158.055 95.1657 158.638 94.5712C159.233 93.9767 159.53 93.2773 159.53 92.4729V87.8917ZM171.115 95.428V95.9176C170.287 95.9176 169.582 95.6437 168.999 95.0958C168.416 94.5363 168.125 93.8252 168.125 92.9625V82.646H168.684V92.9625C168.684 93.6736 168.917 94.2623 169.383 94.7286C169.861 95.1949 170.438 95.428 171.115 95.428ZM179.664 87.8917V95.7603H179.104V93.8019C178.778 94.4663 178.288 94.9909 177.636 95.3756C176.983 95.7603 176.283 95.9526 175.537 95.9526C174.395 95.9526 173.416 95.5504 172.6 94.7461C171.784 93.9301 171.376 92.9567 171.376 91.826C171.376 90.6952 171.784 89.7277 172.6 88.9233C173.416 88.1073 174.395 87.6993 175.537 87.6993C176.283 87.6993 176.994 87.8975 177.671 88.2939C178.358 88.6902 178.836 89.2148 179.104 89.8676V87.8917H179.664ZM171.935 91.8435C171.935 92.8227 172.291 93.6736 173.002 94.3964C173.725 95.1075 174.576 95.463 175.555 95.463C176.546 95.463 177.391 95.1075 178.09 94.3964C178.79 93.6736 179.139 92.8227 179.139 91.8435C179.139 90.8526 178.784 89.9958 178.073 89.2731C177.373 88.5503 176.534 88.1889 175.555 88.1889C174.576 88.1889 173.725 88.5561 173.002 89.2905C172.291 90.0133 171.935 90.8643 171.935 91.8435ZM181.768 95.7603V82.646H182.328V89.8151C182.642 89.174 183.132 88.6611 183.796 88.2764C184.473 87.8917 185.172 87.6993 185.895 87.6993C187.049 87.6993 188.028 88.1073 188.832 88.9233C189.648 89.7277 190.056 90.6952 190.056 91.826C190.056 92.9567 189.648 93.9301 188.832 94.7461C188.028 95.5504 187.049 95.9526 185.895 95.9526C185.195 95.9526 184.513 95.7661 183.849 95.3931C183.184 95.0084 182.677 94.4955 182.328 93.8543V95.7603H181.768ZM182.293 91.8435C182.293 92.8227 182.648 93.6736 183.359 94.3964C184.082 95.1075 184.933 95.463 185.912 95.463C186.903 95.463 187.748 95.1075 188.448 94.3964C189.147 93.6736 189.497 92.8227 189.497 91.8435C189.497 90.8526 189.141 89.9958 188.43 89.2731C187.731 88.5503 186.891 88.1889 185.912 88.1889C184.933 88.1889 184.082 88.5561 183.359 89.2905C182.648 90.0133 182.293 90.8643 182.293 91.8435ZM195.378 95.9526C194.259 95.9526 193.297 95.5388 192.493 94.7111C191.688 93.8718 191.286 92.8984 191.286 91.791C191.286 90.6836 191.694 89.7277 192.51 88.9233C193.326 88.1073 194.305 87.6993 195.448 87.6993C196.602 87.6993 197.581 88.1073 198.385 88.9233C199.201 89.7277 199.609 90.6894 199.609 91.8085C199.609 92.9159 199.213 93.8835 198.42 94.7111C197.628 95.5388 196.666 95.9526 195.535 95.9526H195.378ZM199.05 91.8435C199.05 90.8526 198.694 89.9958 197.983 89.2731C197.284 88.5503 196.445 88.1889 195.465 88.1889C194.486 88.1889 193.635 88.5561 192.912 89.2905C192.201 90.0133 191.846 90.8643 191.846 91.8435C191.846 92.8227 192.201 93.6736 192.912 94.3964C193.635 95.1075 194.486 95.463 195.465 95.463C196.456 95.463 197.301 95.1075 198.001 94.3964C198.7 93.6736 199.05 92.8227 199.05 91.8435ZM205.868 88.9583C205.355 88.4454 204.789 88.1889 204.171 88.1889C203.554 88.1889 203.006 88.4221 202.528 88.8884C202.061 89.3547 201.828 89.8967 201.828 90.5145V95.7603H201.269V87.8917H201.828V89.0632C202.038 88.6669 202.365 88.3405 202.808 88.084C203.25 87.8276 203.746 87.6993 204.294 87.6993C204.842 87.6993 205.366 87.8859 205.868 88.2589V88.9583ZM215.199 87.8917V95.7603H214.639V93.8019C214.313 94.4663 213.823 94.9909 213.171 95.3756C212.518 95.7603 211.818 95.9526 211.072 95.9526C209.93 95.9526 208.951 95.5504 208.135 94.7461C207.319 93.9301 206.911 92.9567 206.911 91.826C206.911 90.6952 207.319 89.7277 208.135 88.9233C208.951 88.1073 209.93 87.6993 211.072 87.6993C211.818 87.6993 212.529 87.8975 213.206 88.2939C213.893 88.6902 214.371 89.2148 214.639 89.8676V87.8917H215.199ZM207.47 91.8435C207.47 92.8227 207.826 93.6736 208.537 94.3964C209.26 95.1075 210.111 95.463 211.09 95.463C212.081 95.463 212.926 95.1075 213.625 94.3964C214.325 93.6736 214.674 92.8227 214.674 91.8435C214.674 90.8526 214.319 89.9958 213.608 89.2731C212.908 88.5503 212.069 88.1889 211.09 88.1889C210.111 88.1889 209.26 88.5561 208.537 89.2905C207.826 90.0133 207.47 90.8643 207.47 91.8435ZM220.118 95.3756V95.8652C219.291 95.8652 218.585 95.5912 218.002 95.0433C217.42 94.4838 217.128 93.7727 217.128 92.9101V84.7268H217.688V87.9092H220.101V88.3988H217.688V92.9101C217.688 93.6212 217.921 94.2099 218.387 94.6761C218.865 95.1424 219.442 95.3756 220.118 95.3756ZM225.175 95.9526C224.056 95.9526 223.094 95.5388 222.29 94.7111C221.486 93.8718 221.084 92.8984 221.084 91.791C221.084 90.6836 221.492 89.7277 222.308 88.9233C223.124 88.1073 224.103 87.6993 225.245 87.6993C226.399 87.6993 227.378 88.1073 228.183 88.9233C228.999 89.7277 229.407 90.6894 229.407 91.8085C229.407 92.9159 229.01 93.8835 228.218 94.7111C227.425 95.5388 226.463 95.9526 225.333 95.9526H225.175ZM228.847 91.8435C228.847 90.8526 228.492 89.9958 227.781 89.2731C227.081 88.5503 226.242 88.1889 225.263 88.1889C224.284 88.1889 223.433 88.5561 222.71 89.2905C221.999 90.0133 221.643 90.8643 221.643 91.8435C221.643 92.8227 221.999 93.6736 222.71 94.3964C223.433 95.1075 224.284 95.463 225.263 95.463C226.254 95.463 227.099 95.1075 227.798 94.3964C228.498 93.6736 228.847 92.8227 228.847 91.8435ZM235.665 88.9583C235.152 88.4454 234.587 88.1889 233.969 88.1889C233.351 88.1889 232.803 88.4221 232.325 88.8884C231.859 89.3547 231.626 89.8967 231.626 90.5145V95.7603H231.066V87.8917H231.626V89.0632C231.836 88.6669 232.162 88.3405 232.605 88.084C233.048 87.8276 233.543 87.6993 234.091 87.6993C234.639 87.6993 235.164 87.8859 235.665 88.2589V88.9583ZM243.475 87.8917H244.035V95.5155C244.035 96.5529 243.673 97.4331 242.95 98.1558C242.228 98.8785 241.342 99.2399 240.293 99.2399C239.034 99.2399 238.037 98.7561 237.303 97.7886L237.338 96.9143C237.664 97.4739 238.089 97.9168 238.614 98.2432C239.15 98.5813 239.71 98.7503 240.293 98.7503C241.155 98.7503 241.901 98.4356 242.531 97.8061C243.16 97.1883 243.475 96.4422 243.475 95.5679V94.239C242.904 95.3814 241.907 95.9526 240.485 95.9526C239.517 95.9526 238.69 95.6145 238.002 94.9384C237.314 94.2507 236.97 93.4288 236.97 92.4729V87.8917H237.53V92.4729C237.53 93.2773 237.821 93.9767 238.404 94.5712C238.999 95.1657 239.698 95.463 240.502 95.463C241.307 95.463 242 95.1657 242.583 94.5712C243.178 93.9767 243.475 93.2773 243.475 92.4729V87.8917Z" fill="#4B6049"/>
<path d="M64.8079 47.8185L79.7957 78.5134H78.3968L72.7215 67.0828H56.6946L51.0991 78.5134H49.8602L64.8079 47.8185ZM64.688 50.5763L57.2141 65.9237H72.2419L64.688 50.5763ZM83.976 48.5379H94.7272V49.697H85.2949V66.0037H93.1685V67.1627H85.2949V77.3544H94.7272V78.5134H83.976V48.5379ZM110.8 52.7745C110.187 51.6554 109.348 50.7761 108.282 50.1366C107.243 49.4972 106.07 49.1774 104.765 49.1774C103.459 49.1774 102.34 49.5904 101.407 50.4164C100.501 51.2158 100.048 52.3215 100.048 53.7337V53.9335C100.048 55.6122 100.981 57.1442 102.846 58.5298C103.646 59.116 104.538 59.7021 105.524 60.2883C106.537 60.8479 107.536 61.4607 108.522 62.1268C109.534 62.7663 110.44 63.4591 111.239 64.2051C112.065 64.9245 112.731 65.8171 113.238 66.8829C113.771 67.9487 114.037 69.1211 114.037 70.4001V70.7997C114.037 73.331 113.171 75.3427 111.439 76.8348C109.734 78.3269 107.616 79.073 105.084 79.073C101.754 79.073 99.1692 77.7008 97.3307 74.9563V72.7981C98.0235 74.3169 99.036 75.5558 100.368 76.5151C101.727 77.4476 103.406 77.9139 105.404 77.9139C107.402 77.9139 109.134 77.2744 110.6 75.9955C112.065 74.7165 112.798 73.0113 112.798 70.8797V70.6399C112.798 69.3076 112.452 68.0953 111.759 67.0028C111.066 65.8838 110.2 64.9778 109.161 64.2851C108.122 63.5657 106.989 62.8196 105.764 62.0469C104.538 61.2742 103.406 60.5548 102.367 59.8887C101.327 59.2225 100.461 58.3832 99.7687 57.3707C99.0759 56.3582 98.7296 55.2524 98.7296 54.0534V53.7737C98.7296 51.9085 99.3291 50.483 100.528 49.4972C101.727 48.5113 103.206 48.0184 104.964 48.0184C107.416 48.0184 109.361 48.9243 110.8 50.7361V52.7745ZM128.694 48.5379V49.697H121.86V78.5134H120.541V49.697H113.627V48.5379H128.694ZM154.353 48.5379H155.672V78.5134H154.353V67.0828H133.81V78.5134H132.491V48.5379H133.81V65.9237H154.353V48.5379ZM161.686 48.5379H172.437V49.697H163.005V66.0037H170.878V67.1627H163.005V77.3544H172.437V78.5134H161.686V48.5379ZM189.309 48.5379V49.697H182.475V78.5134H181.156V49.697H174.241V48.5379H189.309ZM193.305 48.5379H194.624V78.5134H193.305V48.5379ZM215.422 78.9531H214.982C212.238 78.9531 209.68 78.2337 207.308 76.7948C204.937 75.356 203.058 73.4509 201.673 71.0795C200.314 68.6815 199.635 66.1369 199.635 63.4457C199.635 59.2092 201.167 55.5722 204.231 52.5347C207.295 49.4705 210.959 47.9384 215.222 47.9384C218.073 47.9384 220.777 48.6845 223.335 50.1766V51.6554C220.831 49.9501 218.126 49.0975 215.222 49.0975C211.305 49.0975 207.948 50.5097 205.15 53.334C202.352 56.1317 200.953 59.5023 200.953 63.4457C200.953 67.3625 202.352 70.7331 205.15 73.5575C207.948 76.3818 211.305 77.794 215.222 77.794C218.126 77.794 220.831 76.9414 223.335 75.2361V76.7149C220.91 78.207 218.273 78.9531 215.422 78.9531ZM240.811 52.7745C240.198 51.6554 239.358 50.7761 238.293 50.1366C237.253 49.4972 236.081 49.1774 234.775 49.1774C233.47 49.1774 232.351 49.5904 231.418 50.4164C230.512 51.2158 230.059 52.3215 230.059 53.7337V53.9335C230.059 55.6122 230.992 57.1442 232.857 58.5298C233.656 59.116 234.549 59.7021 235.535 60.2883C236.547 60.8479 237.547 61.4607 238.532 62.1268C239.545 62.7663 240.451 63.4591 241.25 64.2051C242.076 64.9245 242.742 65.8171 243.249 66.8829C243.781 67.9487 244.048 69.1211 244.048 70.4001V70.7997C244.048 73.331 243.182 75.3427 241.45 76.8348C239.745 78.3269 237.626 79.073 235.095 79.073C231.765 79.073 229.18 77.7008 227.342 74.9563V72.7981C228.034 74.3169 229.047 75.5558 230.379 76.5151C231.738 77.4476 233.417 77.9139 235.415 77.9139C237.413 77.9139 239.145 77.2744 240.611 75.9955C242.076 74.7165 242.809 73.0113 242.809 70.8797V70.6399C242.809 69.3076 242.463 68.0953 241.77 67.0028C241.077 65.8838 240.211 64.9778 239.172 64.2851C238.133 63.5657 237 62.8196 235.775 62.0469C234.549 61.2742 233.417 60.5548 232.377 59.8887C231.338 59.2225 230.472 58.3832 229.78 57.3707C229.087 56.3582 228.74 55.2524 228.74 54.0534V53.7737C228.74 51.9085 229.34 50.483 230.539 49.4972C231.738 48.5113 233.217 48.0184 234.975 48.0184C237.427 48.0184 239.372 48.9243 240.811 50.7361V52.7745Z" fill="#4B6049"/>
<path d="M67.6682 90.3428C62.5057 94.0897 57.1768 97.6701 51.6813 100.917C46.3523 104.165 40.1074 107.662 33.696 105.747C27.2013 103.748 24.62 96.8375 21.6225 91.4252C18.6249 85.7632 15.5441 80.1844 12.6298 74.4391C9.04944 67.3615 5.96863 59.7012 5.30251 51.7077C5.13598 50.1257 5.21924 48.4604 5.05271 46.8783C4.88618 42.0489 2.55475 37.7191 1.13924 33.1396C-1.85831 22.1485 1.55557 10.6579 5.63557 0.333056L5.71883 0C6.21842 0.333061 6.80128 0.749382 7.21761 1.16571C15.8772 8.90938 25.1196 16.2367 34.6119 22.9812C37.9425 25.3959 41.3564 27.7273 44.7702 30.0587C41.1066 30.9747 37.2764 31.3077 33.7792 32.8898C32.1972 33.6392 30.6151 34.3885 29.5327 35.3877C29.1164 35.8041 28.4502 36.4702 28.4502 37.1363C29.0331 40.2171 33.4462 39.2179 35.3613 37.9689C39.6911 35.804 44.687 34.3885 49.5163 34.8881C51.4314 37.3861 53.5964 39.884 55.4282 42.382L55.5947 42.5485H55.3449C54.7621 42.5485 53.8461 42.8816 53.2633 43.0481C52.5972 43.2147 51.8478 43.4644 51.2649 43.7975C48.2674 45.0465 45.2698 47.1281 41.8559 46.7951C39.2747 46.6285 37.1098 46.2955 34.5286 45.9624C30.4486 45.8792 26.3686 46.6285 22.3719 47.0449C16.9596 47.5445 11.5474 48.044 6.21842 49.1265L6.38496 48.1273C7.38414 48.5436 8.38332 49.0432 9.54903 48.96C11.7139 48.8767 14.0454 48.6269 15.7939 47.3779C17.0429 46.2122 18.4584 46.7118 19.0413 48.2105L18.7915 48.2938C19.5409 40.3836 15.2943 36.1371 7.80046 34.7216C6.46822 34.5551 5.05271 34.222 3.80374 34.8881C2.30496 35.5542 1.63884 36.6367 3.38741 37.6359C5.71884 39.3012 8.54985 39.4677 11.2143 40.2171C13.9621 40.9665 16.3768 42.382 18.7915 43.8808C20.2903 48.5436 21.1229 53.5396 20.54 58.4522C20.2903 61.6996 19.9572 65.0301 18.8747 68.111C17.9588 71.6081 22.3719 73.3567 25.2029 72.9403C26.7017 72.6905 28.1172 71.7746 28.7 70.3591L29.2829 70.7755C28.5335 71.3583 27.6176 71.6914 26.7017 71.6914C26.0356 71.275 26.2853 70.4424 26.7849 70.0261C27.118 69.7763 27.5343 69.6097 27.9507 69.5265C29.3662 69.1934 31.0315 69.0269 32.2804 70.0261C32.8633 70.5256 33.1964 71.1918 33.8625 71.4416C35.1115 72.1077 36.7768 71.1918 37.2764 69.9428C37.776 68.6106 37.4429 67.1118 36.7768 65.8628C36.86 65.7795 35.8609 74.9387 35.9441 74.9387C35.6943 77.9363 35.4445 81.0171 35.1947 84.0979L35.1115 84.0146C36.7768 84.2644 38.4421 84.2644 40.0241 84.0979C41.856 84.0146 43.6878 83.5983 45.5196 83.0987L45.1033 83.5983C42.0225 87.0122 38.6086 90.3428 34.1123 91.8416C29.3662 93.7567 22.7882 91.9248 23.3711 85.8465C27.2845 85.4301 31.0315 82.9322 35.1115 84.0146L34.8617 84.2644C32.8633 86.2628 29.4494 85.6799 26.8682 85.9297C25.4527 85.8465 23.8707 86.2628 22.6217 85.4301C21.3727 84.4309 21.3727 82.4326 22.1221 81.1836C23.1213 79.3518 25.7025 78.7689 27.4511 80.0179H26.9515C27.6176 79.435 28.4502 78.9354 29.2829 78.6024C31.9474 77.6032 34.6951 78.9354 37.0266 80.0179C38.6086 80.7673 39.8576 81.6832 41.6062 81.7665C42.7719 82.0163 44.7702 81.8497 45.1033 83.2652C45.1866 83.6816 45.1033 84.0979 45.1866 84.5975C46.3523 93.0905 49.6829 101.084 53.6796 108.578C57.3433 119.985 57.5931 132.142 57.8429 144.049C57.5098 133.891 57.1768 123.566 54.7621 113.574C54.3457 109.993 52.6804 107.246 51.1817 104.082C49.7661 101.001 48.6004 97.7534 47.518 94.5061C46.4355 91.2587 45.6029 87.9281 45.02 84.5975C44.9368 84.1811 44.8535 83.7648 44.687 83.3485C44.3539 82.4326 43.5213 82.5991 42.6886 82.5158C41.3564 82.4326 40.1074 82.5158 38.7751 82.0995C36.4437 81.1003 34.1123 80.1844 31.6976 79.6016C30.1988 79.1852 28.5335 79.5183 27.2845 80.5175L27.0347 80.684L26.7849 80.5175C25.536 79.6016 23.3711 79.9346 22.6217 81.4334C21.789 82.7656 22.2886 85.0138 23.9539 84.9305C25.4527 85.0138 27.7841 84.8473 29.2829 84.8473C31.0315 84.8473 32.8633 85.0138 34.2788 83.7648L34.3621 84.0979C30.6151 83.0154 26.8682 85.4302 23.2045 85.9297L23.3711 85.7632C23.2045 88.0946 24.4535 90.426 26.8682 90.6758C33.7792 92.2579 40.1906 88.1779 44.5204 83.0155L44.687 83.3485C41.4396 84.2644 38.0257 84.4309 34.7784 83.9314H34.6951V83.8481C35.3613 78.6857 36.0274 70.7755 36.6102 65.613C37.3596 66.862 37.776 68.3608 37.1931 69.7763C36.6935 71.1085 34.9449 72.1077 33.6127 71.4416C32.9466 71.1085 32.5302 70.4424 31.9474 70.0261C31.3645 69.6097 30.6984 69.5265 30.0323 69.6097C29.1164 69.693 27.5343 70.0261 26.9515 70.7755L26.7017 70.6922C27.8674 70.6922 28.9498 69.8595 29.8658 69.1934L29.2829 70.4424C27.3678 74.6889 20.6233 74.1061 18.5417 70.3591C17.709 68.6938 18.7082 67.0285 19.1245 65.5298C19.2911 64.7804 19.4576 63.9477 19.6241 63.115C20.1237 59.8677 20.6233 56.6203 20.4568 53.373C20.2903 50.1257 19.5409 46.8783 18.4584 43.8808C16.3768 43.3812 13.4625 41.3828 10.9645 40.7167C8.05026 39.8008 4.63638 39.3845 2.38822 37.053C1.4723 36.0539 2.80455 34.8881 3.72046 34.5551C5.05271 33.889 6.46822 34.222 7.88373 34.3885C16.127 35.8873 20.3735 39.3844 19.1245 48.2105L19.0413 48.5436L18.7915 48.2105C18.1254 47.2946 17.2094 46.8783 16.3768 47.8775C14.545 49.6261 11.8805 49.9592 9.46577 49.7094C8.30005 49.5428 7.05108 49.3763 5.88537 48.8767L4.22006 47.9608C6.13516 47.7942 8.13353 47.711 10.1319 47.711C14.2119 47.5444 18.2919 46.9616 22.2886 46.5452C24.9531 46.2122 27.7009 46.1289 30.4486 45.7959C33.1131 45.3796 35.8609 44.88 38.6086 44.7134C40.6902 44.7967 42.8551 44.7967 44.7702 44.3804C47.518 43.7142 50.349 42.7983 53.0968 42.382C53.6796 42.2987 54.6788 42.0489 55.1784 41.8824L55.0951 42.1322C53.18 39.6342 51.3482 36.8865 49.4331 34.4718C47.6845 34.4718 45.9359 34.4718 44.1874 34.8049C41.6062 35.3045 39.1082 36.2204 36.7768 37.4694C35.1947 38.3853 33.696 39.3844 31.8641 39.6342C29.949 40.0506 27.3678 38.9681 27.0347 36.72C26.9515 35.0546 28.2004 33.8057 29.4494 32.8898C33.7792 30.3918 38.9417 29.9755 43.7711 29.3094C44.0208 29.3094 44.1874 29.3926 44.4372 29.3926L44.3539 29.5592C31.8641 20.8996 19.7074 11.5739 7.80046 2.08163L6.63475 1.08244C6.21842 0.749377 5.88537 0.416306 5.46904 0.0832449L5.88537 0C1.63884 10.0751 -1.52524 21.5657 1.30577 32.4734C2.63802 37.053 5.05271 41.3828 5.13598 46.2955C5.21924 47.8775 5.21924 49.4595 5.30251 51.0416C5.88536 59.035 8.96618 66.5289 12.4633 73.6064C15.2943 79.2685 18.3752 84.9305 21.3727 90.5926C24.3702 95.9216 26.8682 102.833 33.2796 104.831C39.6078 106.663 45.8527 103.249 51.1817 100.085C57.1768 97.6701 62.589 93.6734 67.6682 90.3428Z" fill="#4B6049"/>
</svg>
