<svg width="50" height="50" viewBox="0 0 50 50" fill="none" xmlns="http://www.w3.org/2000/svg">
<path d="M25 50C38.8071 50 50 38.8071 50 25C50 11.1929 38.8071 0 25 0C11.1929 0 0 11.1929 0 25C0 38.8071 11.1929 50 25 50Z" fill="#4B6049"/>
<path fill-rule="evenodd" clip-rule="evenodd" d="M25 11.1328C22.6661 11.1328 20.4278 12.0316 18.7775 13.6314C17.1271 15.2313 16.2 17.4012 16.2 19.6638C16.2 20.7397 16.7393 22.49 17.6796 24.6449C18.5989 26.7518 19.8324 29.0957 21.0772 31.296C22.32 33.4929 23.5643 35.5294 24.4986 37.0176C24.723 37.3751 24.9294 37.7007 25.1135 37.9891C25.2913 37.7032 25.4904 37.381 25.7067 37.0276C26.6176 35.5391 27.8308 33.5024 29.0427 31.3052C30.2563 29.1047 31.4592 26.7602 32.3558 24.6528C33.2723 22.4987 33.8 20.7449 33.8 19.6638C33.8 17.4012 32.8729 15.2313 31.2225 13.6314C29.5722 12.0316 27.3339 11.1328 25 11.1328ZM25.1254 40.0125C24.2006 40.5898 24.2005 40.5897 24.2003 40.5895L24.1999 40.5888L24.1703 40.5441C24.1508 40.5146 24.1221 40.4711 24.0849 40.4143C24.0103 40.3008 23.9015 40.1343 23.7632 39.921C23.4867 39.4943 23.0923 38.8798 22.6193 38.1264C21.6738 36.6204 20.4117 34.555 19.1482 32.3216C17.8867 30.0916 16.6138 27.6769 15.6534 25.4757C14.7139 23.3226 14 21.2154 14 19.6638C14 16.8356 15.1589 14.1232 17.2218 12.1234C19.2847 10.1235 22.0826 9 25 9C27.9174 9 30.7153 10.1235 32.7782 12.1234C34.8411 14.1232 36 16.8356 36 19.6638C36 21.2092 35.3059 23.3122 34.3896 25.466C33.4535 27.6664 32.2127 30.0808 30.9827 32.3108C29.7509 34.5442 28.5205 36.6097 27.5987 38.1158C27.1376 38.8693 26.753 39.4838 26.4834 39.9106C26.3486 40.1239 26.2425 40.2904 26.1698 40.4039C26.1472 40.4392 26.1279 40.4694 26.1119 40.4943C26.1022 40.5094 26.0937 40.5225 26.0866 40.5337L26.0649 40.5673L26.0573 40.5791C26.0571 40.5793 26.0571 40.5794 25.1254 40.0125ZM25.1254 40.0125L26.0571 40.5794L25.1372 42L24.2006 40.5898L25.1254 40.0125Z" fill="#FFFBF5"/>
<path fill-rule="evenodd" clip-rule="evenodd" d="M25 16C23.3431 16 22 17.3431 22 19C22 20.6569 23.3431 22 25 22C26.6569 22 28 20.6569 28 19C28 17.3431 26.6569 16 25 16ZM20 19C20 16.2386 22.2386 14 25 14C27.7614 14 30 16.2386 30 19C30 21.7614 27.7614 24 25 24C22.2386 24 20 21.7614 20 19Z" fill="#FFFBF5"/>
</svg>
