<svg width="83" height="34" viewBox="0 0 83 34" fill="none" xmlns="http://www.w3.org/2000/svg">
<g clip-path="url(#clip0_6_7491)">
<path d="M15.4459 4.37556C14.4772 5.52192 12.9272 6.4261 11.3772 6.29693C11.1834 4.74692 11.9423 3.10003 12.8303 2.08283C13.799 0.904174 15.4944 0.0645839 16.8668 0C17.0282 1.6146 16.3985 3.1969 15.4459 4.37556ZM16.8506 6.6037C14.6063 6.47454 12.685 7.87924 11.6193 7.87924C10.5376 7.87924 8.90682 6.66829 7.13076 6.70058C4.82188 6.73287 2.67447 8.0407 1.49581 10.1235C-0.926083 14.2892 0.86612 20.4569 3.20729 23.8476C4.35365 25.5268 5.72606 27.3674 7.53441 27.3028C9.24588 27.2383 9.92401 26.1888 11.9907 26.1888C14.0735 26.1888 14.6709 27.3028 16.4793 27.2705C18.3522 27.2383 19.5309 25.5914 20.6772 23.9122C21.9851 22.007 22.5179 20.1502 22.5502 20.0533C22.5179 20.021 18.9335 18.6486 18.9012 14.5152C18.8689 11.06 21.7267 9.4131 21.8559 9.31623C20.2413 6.92662 17.7225 6.66829 16.8506 6.6037ZM29.8159 1.92137V27.0929H33.7232V18.4871H39.1321C44.0728 18.4871 47.5441 15.0965 47.5441 10.1881C47.5441 5.27973 44.1373 1.92137 39.2613 1.92137H29.8159ZM33.7232 5.21515H38.2279C41.6186 5.21515 43.5561 7.0235 43.5561 10.2043C43.5561 13.385 41.6186 15.2095 38.2118 15.2095H33.7232V5.21515ZM54.6807 27.2867C57.1348 27.2867 59.4114 26.0435 60.4448 24.0736H60.5255V27.0929H64.1422V14.5637C64.1422 10.9308 61.2359 8.58966 56.7635 8.58966C52.614 8.58966 49.5462 10.9631 49.4332 14.2246H52.953C53.2437 12.6746 54.6807 11.6574 56.6505 11.6574C59.0401 11.6574 60.3802 12.7715 60.3802 14.822V16.2106L55.5041 16.5012C50.9671 16.7757 48.5129 18.6325 48.5129 21.8616C48.5129 25.1231 51.0478 27.2867 54.6807 27.2867ZM55.7301 24.2997C53.6473 24.2997 52.3233 23.2986 52.3233 21.7648C52.3233 20.1825 53.5989 19.2621 56.0369 19.1168L60.3802 18.8424V20.2632C60.3802 22.6205 58.3781 24.2997 55.7301 24.2997ZM68.9698 33.9388C72.7803 33.9388 74.5725 32.4857 76.1387 28.0778L83.0007 8.83185H79.0288L74.4272 23.7023H74.3465L69.7449 8.83185H65.6599L72.2798 27.1575L71.9246 28.2716C71.3272 30.1607 70.3584 30.8872 68.6308 30.8872C68.324 30.8872 67.7266 30.855 67.4844 30.8227V33.842C67.7105 33.9065 68.6792 33.9388 68.9698 33.9388Z" fill="black"/>
</g>
<defs>
<clipPath id="clip0_6_7491">
<rect width="82.6674" height="33.9388" fill="white" transform="translate(0.33252)"/>
</clipPath>
</defs>
</svg>
