<svg width="83" height="34" viewBox="0 0 83 34" fill="none" xmlns="http://www.w3.org/2000/svg">
<g clip-path="url(#clip0_6_7488)">
<path d="M15.4454 4.37555C14.4767 5.52191 12.9266 6.42608 11.3766 6.29692C11.1829 4.74691 11.9417 3.10002 12.8298 2.08283C13.7985 0.904173 15.4939 0.0645838 16.8663 0C17.0277 1.61459 16.398 3.1969 15.4454 4.37555ZM16.8501 6.60369C14.6058 6.47452 12.6845 7.87922 11.6188 7.87922C10.537 7.87922 8.90631 6.66827 7.13026 6.70057C4.82139 6.73286 2.67398 8.04068 1.49532 10.1235C-0.926568 14.2892 0.865631 20.4569 3.20679 23.8476C4.35315 25.5267 5.72556 27.3674 7.5339 27.3028C9.24537 27.2382 9.9235 26.1887 11.9902 26.1887C14.073 26.1887 14.6704 27.3028 16.4788 27.2705C18.3517 27.2382 19.5303 25.5913 20.6767 23.9121C21.9845 22.0069 22.5173 20.1501 22.5496 20.0533C22.5173 20.021 18.9329 18.6486 18.9006 14.5152C18.8684 11.06 21.7262 9.41308 21.8554 9.31621C20.2408 6.92661 17.722 6.66827 16.8501 6.60369ZM29.8153 1.92137V27.0929H33.7226V18.4871H39.1315C44.0722 18.4871 47.5435 15.0965 47.5435 10.1881C47.5435 5.27972 44.1368 1.92137 39.2607 1.92137H29.8153ZM33.7226 5.21514H38.2273C41.618 5.21514 43.5555 7.02348 43.5555 10.2042C43.5555 13.385 41.618 15.2095 38.2112 15.2095H33.7226V5.21514ZM54.68 27.2866C57.1342 27.2866 59.4108 26.0434 60.4441 24.0736H60.5249V27.0929H64.1416V14.5636C64.1416 10.9308 61.2353 8.58964 56.7629 8.58964C52.6134 8.58964 49.5456 10.9631 49.4326 14.2246H52.9524C53.2431 12.6746 54.68 11.6574 56.6499 11.6574C59.0395 11.6574 60.3796 12.7714 60.3796 14.822V16.2105L55.5035 16.5012C50.9665 16.7756 48.5123 18.6324 48.5123 21.8616C48.5123 25.1231 51.0472 27.2866 54.68 27.2866ZM55.7295 24.2996C53.6467 24.2996 52.3227 23.2986 52.3227 21.7647C52.3227 20.1824 53.5983 19.2621 56.0363 19.1168L60.3796 18.8423V20.2632C60.3796 22.6205 58.3775 24.2996 55.7295 24.2996ZM68.9692 33.9388C72.7796 33.9388 74.5718 32.4856 76.138 28.0778L83 8.83183H79.0281L74.4265 23.7022H74.3458L69.7442 8.83183H65.6593L72.2791 27.1575L71.9239 28.2715C71.3265 30.1606 70.3578 30.8872 68.6301 30.8872C68.3234 30.8872 67.726 30.8549 67.4838 30.8226V33.8419C67.7098 33.9065 68.6786 33.9388 68.9692 33.9388Z" fill="#BCBCBC"/>
</g>
<defs>
<clipPath id="clip0_6_7488">
<rect width="82.6672" height="33.9388" fill="white" transform="translate(0.33252)"/>
</clipPath>
</defs>
</svg>
