<svg width="40" height="40" viewBox="0 0 40 40" fill="none" xmlns="http://www.w3.org/2000/svg">
<path d="M20 40C31.0457 40 40 31.0457 40 20C40 8.95431 31.0457 0 20 0C8.95431 0 0 8.95431 0 20C0 31.0457 8.95431 40 20 40Z" fill="#4B6049"/>
<path d="M24.667 15.977V14.0072C24.667 13.3934 24.5463 12.7856 24.3118 12.2186C24.0772 11.6515 23.7335 11.1362 23.3002 10.7022C22.8668 10.2682 22.3524 9.92393 21.7862 9.68904C21.22 9.45415 20.6132 9.33325 20.0003 9.33325C19.3875 9.33325 18.7807 9.45415 18.2145 9.68904C17.6483 9.92393 17.1338 10.2682 16.7005 10.7022C16.2672 11.1362 15.9234 11.6515 15.6889 12.2186C15.4544 12.7856 15.3337 13.3934 15.3337 14.0072V18.6812C15.3337 18.8583 15.4039 19.0281 15.5289 19.1533C15.6539 19.2786 15.8235 19.3489 16.0003 19.3489C16.1771 19.3489 16.3467 19.2786 16.4717 19.1533C16.5968 19.0281 16.667 18.8583 16.667 18.6812V17.3124H22.0003V15.977H16.667V14.0072C16.667 13.1218 17.0182 12.2726 17.6433 11.6465C18.2684 11.0204 19.1163 10.6687 20.0003 10.6687C20.8844 10.6687 21.7322 11.0204 22.3573 11.6465C22.9825 12.2726 23.3337 13.1218 23.3337 14.0072V18.6478C23.3337 18.8249 23.4039 18.9947 23.5289 19.1199C23.6539 19.2452 23.8235 19.3155 24.0003 19.3155C24.1771 19.3155 24.3467 19.2452 24.4717 19.1199C24.5968 18.9947 24.667 18.8249 24.667 18.6478V17.3124H28.0003V29.3312H12.0003V17.3124H14.0003V15.977H10.667V29.3913C10.667 29.7295 10.8011 30.0539 11.0399 30.2931C11.2787 30.5322 11.6026 30.6666 11.9403 30.6666H28.0603C28.398 30.6666 28.7219 30.5322 28.9607 30.2931C29.1995 30.0539 29.3337 29.7295 29.3337 29.3913V15.977H24.667Z" fill="#FFFBF5"/>
</svg>
