<svg width="36" height="36" viewBox="0 0 36 36" fill="none" xmlns="http://www.w3.org/2000/svg">
<g clip-path="url(#clip0_40_2043)">
<path d="M25 12.0156V9.061C25 8.14031 24.8189 7.22864 24.4672 6.37803C24.1154 5.52742 23.5998 4.75454 22.9497 4.10351C22.2997 3.45248 21.5281 2.93606 20.6788 2.58373C19.8295 2.23139 18.9193 2.05005 18 2.05005C17.0807 2.05005 16.1705 2.23139 15.3212 2.58373C14.4719 2.93606 13.7003 3.45248 13.0503 4.10351C12.4002 4.75454 11.8846 5.52742 11.5328 6.37803C11.1811 7.22864 11 8.14031 11 9.061V16.072C11 16.3376 11.1054 16.5923 11.2929 16.7802C11.4804 16.968 11.7348 17.0735 12 17.0735C12.2652 17.0735 12.5196 16.968 12.7071 16.7802C12.8946 16.5923 13 16.3376 13 16.072V14.0188H21V12.0156H13V9.061C13 7.73285 13.5268 6.45909 14.4645 5.51994C15.4021 4.58079 16.6739 4.05318 18 4.05318C19.3261 4.05318 20.5979 4.58079 21.5355 5.51994C22.4732 6.45909 23 7.73285 23 9.061V16.0219C23 16.2875 23.1054 16.5423 23.2929 16.7301C23.4804 16.9179 23.7348 17.0234 24 17.0234C24.2652 17.0234 24.5196 16.9179 24.7071 16.7301C24.8946 16.5423 25 16.2875 25 16.0219V14.0188H30V32.0469H6V14.0188H9V12.0156H4V32.1371C4 32.6444 4.20123 33.131 4.55943 33.4897C4.91762 33.8485 5.40344 34.05 5.91 34.05H30.09C30.5966 34.05 31.0824 33.8485 31.4406 33.4897C31.7988 33.131 32 32.6444 32 32.1371V12.0156H25Z" fill="#4B6049"/>
<path d="M19.0391 28H17.3691C17.4408 26.6263 17.4766 25.2005 17.4766 23.7227C17.4766 22.0104 17.4408 20.7474 17.3691 19.9336L15.1426 21.0469L14.6836 20.1973L18.1992 17.6094H19.0391C18.974 19.7122 18.9414 21.75 18.9414 23.7227C18.9414 25.1159 18.974 26.5417 19.0391 28Z" fill="#4B6049"/>
</g>
<defs>
<clipPath id="clip0_40_2043">
<rect width="36" height="36" fill="white"/>
</clipPath>
</defs>
</svg>
