<svg width="50" height="50" viewBox="0 0 50 50" fill="none" xmlns="http://www.w3.org/2000/svg">
<path d="M49.5 25C49.5 38.531 38.531 49.5 25 49.5C11.469 49.5 0.5 38.531 0.5 25C0.5 11.469 11.469 0.5 25 0.5C38.531 0.5 49.5 11.469 49.5 25Z" stroke="#4B6049"/>
<path fill-rule="evenodd" clip-rule="evenodd" d="M11.8554 15.2727C10.9786 15.2727 10.2679 15.985 10.2679 16.8636V34.1364C10.2679 35.015 10.9786 35.7273 11.8554 35.7273H39.1446C40.0214 35.7273 40.7321 35.015 40.7321 34.1364V16.8636C40.7321 15.985 40.0214 15.2727 39.1446 15.2727H11.8554ZM8 16.8636C8 14.7298 9.72611 13 11.8554 13H39.1446C41.2739 13 43 14.7298 43 16.8636V34.1364C43 36.2702 41.2739 38 39.1446 38H11.8554C9.72611 38 8 36.2702 8 34.1364V16.8636Z" fill="#4B6049"/>
<path fill-rule="evenodd" clip-rule="evenodd" d="M11.4161 13.6841H39.9539C40.4003 13.6808 40.8367 13.8167 41.2026 14.0732C41.5704 14.3312 41.8485 14.698 41.9978 15.1223C42.147 15.5467 42.16 16.0072 42.0348 16.4393C41.9106 16.8682 41.6564 17.2477 41.3076 17.5255L27.0389 29.1235L26.3246 28.241L27.0383 29.124C26.6555 29.4348 26.1777 29.6044 25.685 29.6044C25.1923 29.6044 24.7146 29.4348 24.3317 29.124L10.0625 17.5255C9.71364 17.2478 9.45948 16.8682 9.33523 16.4393C9.21007 16.0072 9.22303 15.5467 9.37229 15.1223C9.52154 14.698 9.7996 14.3312 10.1675 14.0732C10.5333 13.8167 10.9698 13.6808 11.4161 13.6841ZM25.685 27.2976L39.6373 15.9569H11.7328L25.685 27.2976Z" fill="#4B6049"/>
</svg>
