<svg width="40" height="40" viewBox="0 0 40 40" fill="none" xmlns="http://www.w3.org/2000/svg">
<path d="M20 40C31.0457 40 40 31.0457 40 20C40 8.95431 31.0457 0 20 0C8.95431 0 0 8.95431 0 20C0 31.0457 8.95431 40 20 40Z" fill="#4B6049"/>
<path d="M15 11.0833C12.239 11.0833 10 13.2993 10 16.0333C10 18.2403 10.875 23.4783 19.488 28.7733C19.6423 28.8671 19.8194 28.9168 20 28.9168C20.1806 28.9168 20.3577 28.8671 20.512 28.7733C29.125 23.4783 30 18.2403 30 16.0333C30 13.2993 27.761 11.0833 25 11.0833C22.239 11.0833 20 14.0833 20 14.0833C20 14.0833 17.761 11.0833 15 11.0833Z" stroke="#FFFBF5" stroke-width="1.41176" stroke-linecap="round" stroke-linejoin="round"/>
</svg>
