<svg width="50" height="50" viewBox="0 0 50 50" fill="none" xmlns="http://www.w3.org/2000/svg">
<path d="M49.5 25C49.5 38.531 38.531 49.5 25 49.5C11.469 49.5 0.5 38.531 0.5 25C0.5 11.469 11.469 0.5 25 0.5C38.531 0.5 49.5 11.469 49.5 25Z" stroke="#4B6049"/>
<path fill-rule="evenodd" clip-rule="evenodd" d="M16.4286 12.1429C14.0616 12.1429 12.1429 14.0616 12.1429 16.4286V33.5714C12.1429 35.9384 14.0616 37.8571 16.4286 37.8571H33.5714C35.9384 37.8571 37.8571 35.9384 37.8571 33.5714V16.4286C37.8571 14.0616 35.9384 12.1429 33.5714 12.1429H16.4286ZM10 16.4286C10 12.8782 12.8782 10 16.4286 10H33.5714C37.1218 10 40 12.8782 40 16.4286V33.5714C40 37.1218 37.1218 40 33.5714 40H16.4286C12.8782 40 10 37.1218 10 33.5714V16.4286Z" fill="#4B6049"/>
<path fill-rule="evenodd" clip-rule="evenodd" d="M25 19.6429C22.0413 19.6429 19.6429 22.0413 19.6429 25C19.6429 27.9587 22.0413 30.3571 25 30.3571C27.9587 30.3571 30.3571 27.9587 30.3571 25C30.3571 22.0413 27.9587 19.6429 25 19.6429ZM17.5 25C17.5 20.8579 20.8579 17.5 25 17.5C29.1421 17.5 32.5 20.8579 32.5 25C32.5 29.1421 29.1421 32.5 25 32.5C20.8579 32.5 17.5 29.1421 17.5 25Z" fill="#4B6049"/>
<path fill-rule="evenodd" clip-rule="evenodd" d="M33.4375 16C33.1268 16 32.875 16.2518 32.875 16.5625C32.875 16.8732 33.1268 17.125 33.4375 17.125C33.7482 17.125 34 16.8732 34 16.5625C34 16.2518 33.7482 16 33.4375 16ZM30.625 16.5625C30.625 15.0092 31.8842 13.75 33.4375 13.75C34.9908 13.75 36.25 15.0092 36.25 16.5625C36.25 18.1158 34.9908 19.375 33.4375 19.375C31.8842 19.375 30.625 18.1158 30.625 16.5625Z" fill="#4B6049"/>
</svg>
