<svg width="52" height="32" viewBox="0 0 52 32" fill="none" xmlns="http://www.w3.org/2000/svg">
<g clip-path="url(#clip0_6_7486)">
<path fill-rule="evenodd" clip-rule="evenodd" d="M18.6553 28.4272H32.4836V3.46606H18.6553V28.4272Z" fill="#8B8B8B"/>
<path fill-rule="evenodd" clip-rule="evenodd" d="M19.533 15.9464C19.533 10.8824 21.8935 6.37224 25.5692 3.46586C22.8808 1.33998 19.4891 0.0717773 15.8025 0.0717773C7.07482 0.0717773 0 7.17921 0 15.9464C0 24.7136 7.07482 31.8211 15.8025 31.8211C19.4891 31.8211 22.8808 30.5528 25.5692 28.427C21.8935 25.5201 19.533 21.0104 19.533 15.9464Z" fill="#BCBCBC"/>
<path fill-rule="evenodd" clip-rule="evenodd" d="M50.6446 25.7834V25.1674H50.4844L50.3004 25.5911L50.1161 25.1674H49.9558V25.7834H50.0686V25.3186L50.2416 25.7195H50.3588L50.5318 25.3177V25.7834H50.6446ZM49.6301 25.7834V25.2723H49.8355V25.1683H49.3131V25.2723H49.5181V25.7834H49.6301ZM51.138 15.9464C51.138 24.7136 44.0628 31.8211 35.3356 31.8211C31.6489 31.8211 28.2568 30.5528 25.5688 28.427C29.2445 25.5206 31.605 21.0104 31.605 15.9464C31.605 10.8828 29.2445 6.37268 25.5688 3.46586C28.2568 1.33998 31.6489 0.0717773 35.3356 0.0717773C44.0628 0.0717773 51.138 7.17921 51.138 15.9464Z" fill="#D9D9D9"/>
</g>
<defs>
<clipPath id="clip0_6_7486">
<rect width="51.667" height="31.7951" fill="white" transform="translate(0 0.0717773)"/>
</clipPath>
</defs>
</svg>
