<svg width="52" height="32" viewBox="0 0 52 32" fill="none" xmlns="http://www.w3.org/2000/svg">
<g clip-path="url(#clip0_6_7489)">
<path fill-rule="evenodd" clip-rule="evenodd" d="M18.6553 28.4275H32.4836V3.46631H18.6553V28.4275Z" fill="#FF5F00"/>
<path fill-rule="evenodd" clip-rule="evenodd" d="M19.5331 15.9467C19.5331 10.8827 21.8935 6.3725 25.5692 3.46611C22.8808 1.34023 19.4892 0.0720215 15.8025 0.0720215C7.07484 0.0720215 0 7.17947 0 15.9467C0 24.7139 7.07484 31.8214 15.8025 31.8214C19.4892 31.8214 22.8808 30.5532 25.5692 28.4273C21.8935 25.5204 19.5331 21.0107 19.5331 15.9467Z" fill="#EB001B"/>
<path fill-rule="evenodd" clip-rule="evenodd" d="M50.6451 25.7837V25.1677H50.4849L50.301 25.5914L50.1166 25.1677H49.9564V25.7837H50.0692V25.3189L50.2421 25.7198H50.3594L50.5323 25.318V25.7837H50.6451ZM49.6306 25.7837V25.2726H49.8361V25.1686H49.3137V25.2726H49.5187V25.7837H49.6306ZM51.1386 15.9467C51.1386 24.7139 44.0633 31.8214 35.3361 31.8214C31.6494 31.8214 28.2573 30.5532 25.5693 28.4273C29.245 25.5209 31.6055 21.0107 31.6055 15.9467C31.6055 10.8831 29.245 6.37294 25.5693 3.46611C28.2573 1.34023 31.6494 0.0720215 35.3361 0.0720215C44.0633 0.0720215 51.1386 7.17947 51.1386 15.9467Z" fill="#F79E1B"/>
</g>
<defs>
<clipPath id="clip0_6_7489">
<rect width="51.6671" height="31.7952" fill="white" transform="translate(0 0.0720215)"/>
</clipPath>
</defs>
</svg>
