<svg width="50" height="50" viewBox="0 0 50 50" fill="none" xmlns="http://www.w3.org/2000/svg">
<path d="M49.5 25C49.5 38.531 38.531 49.5 25 49.5C11.469 49.5 0.5 38.531 0.5 25C0.5 11.469 11.469 0.5 25 0.5C38.531 0.5 49.5 11.469 49.5 25Z" stroke="#4B6049"/>
<path fill-rule="evenodd" clip-rule="evenodd" d="M18.0319 12.2343C15.5781 12.0033 13.4602 13.7968 13.2486 16.156L13.2484 16.159L13.2481 16.1619C12.1695 27.5325 20.5453 37.6786 32.0296 38.766C34.4829 38.9946 36.6029 37.2036 36.8305 34.8393C36.8511 34.6056 36.851 34.3704 36.8302 34.1367L36.8291 34.1249L36.8283 34.113C36.8107 33.8542 36.7694 33.5982 36.7052 33.3482L29.2553 31.4225C28.7435 31.947 28.3697 32.6004 28.1739 33.3215L27.8399 34.5512L26.703 34.0374C24.3238 32.9621 22.212 31.3476 20.5257 29.3146C18.8394 27.2816 17.6222 24.8828 16.9652 22.2978L16.6362 21.0031L17.935 20.9132C18.7028 20.8601 19.4413 20.605 20.0812 20.1766L19.5891 12.6768C19.3246 12.5451 19.0474 12.4411 18.7617 12.3666L18.7557 12.3651L18.7497 12.3634C18.5157 12.2995 18.2769 12.2565 18.0357 12.2346L18.0338 12.2345L18.0319 12.2343ZM18.2264 10.0289C14.6591 9.69414 11.4323 12.3057 11.1039 15.9498C9.90505 28.6046 19.2224 39.7775 31.8328 40.9712L31.8342 40.9714C35.4066 41.3047 38.6275 38.6911 38.9747 35.0518L38.975 35.0482L38.9754 35.0446C39.0079 34.6795 39.0082 34.312 38.9764 33.9468C38.9297 33.2786 38.7802 32.6222 38.5334 32.0021L38.3272 31.4841L28.7212 29.0011L28.3061 29.3349C27.574 29.9235 26.9805 30.6665 26.562 31.5079C24.8902 30.5945 23.3976 29.3639 22.1648 27.8777C20.9441 26.4061 20.0044 24.7155 19.3907 22.8947C20.3009 22.638 21.1524 22.1832 21.8851 21.5552L22.307 21.1936L21.6627 11.3757L21.2064 11.0746C20.6186 10.6867 19.9738 10.3987 19.2968 10.2216C18.946 10.1262 18.5879 10.0617 18.2264 10.0289Z" fill="#4B6049"/>
</svg>
