<svg width="77" height="26" viewBox="0 0 77 26" fill="none" xmlns="http://www.w3.org/2000/svg">
<path d="M33.4377 24.9035H27.2861L31.1338 1.11255H37.285L33.4377 24.9035Z" fill="#00579F"/>
<path d="M55.7378 1.69403C54.5244 1.21265 52.5999 0.681152 50.2203 0.681152C44.1454 0.681152 39.8675 3.92061 39.8412 8.55205C39.7908 11.9691 42.9041 13.867 45.2326 15.0064C47.6126 16.1707 48.4216 16.9306 48.4216 17.9683C48.3974 19.5622 46.4984 20.2968 44.7273 20.2968C42.2713 20.2968 40.9554 19.9181 38.9555 19.0313L38.1455 18.6512L37.2847 23.9918C38.7275 24.6491 41.3856 25.2324 44.1454 25.2579C50.6001 25.2579 54.8023 22.0686 54.8521 17.1331C54.8766 14.4248 53.2327 12.3496 49.6884 10.6538C47.5369 9.56526 46.2192 8.83126 46.2192 7.71746C46.2445 6.70492 47.3337 5.66783 49.7625 5.66783C51.7623 5.61703 53.2317 6.09773 54.3448 6.57877L54.9012 6.83141L55.7378 1.69403Z" fill="#00579F"/>
<path d="M63.913 16.4752C64.4196 15.1085 66.369 9.81871 66.369 9.81871C66.3435 9.8695 66.8746 8.42672 67.1784 7.541L67.6083 9.59097C67.6083 9.59097 68.7732 15.2857 69.0262 16.4752C68.0648 16.4752 65.1281 16.4752 63.913 16.4752ZM71.5064 1.11255H66.7482C65.2808 1.11255 64.166 1.54246 63.5329 3.0865L54.3955 24.9032H60.8502C60.8502 24.9032 61.9129 21.9668 62.1413 21.3344C62.8494 21.3344 69.1285 21.3344 70.0394 21.3344C70.216 22.1697 70.7734 24.9032 70.7734 24.9032H76.4692L71.5064 1.11255Z" fill="#00579F"/>
<path d="M22.1482 1.11255L16.1238 17.3357L15.4654 14.0455C14.3516 10.249 10.8586 6.12412 6.96045 4.07313L12.4786 24.8783H18.9838L28.653 1.11255H22.1482Z" fill="#00579F"/>
<path d="M10.5293 1.11255H0.632015L0.530762 1.59325C8.25129 3.56754 13.3644 8.32647 15.4652 14.0465L13.3137 3.1124C12.9594 1.59292 11.8709 1.16267 10.5293 1.11255Z" fill="#FAA61A"/>
</svg>
