<svg width="77" height="26" viewBox="0 0 77 26" fill="none" xmlns="http://www.w3.org/2000/svg">
<path d="M33.4372 24.9035H27.2856L31.1333 1.11255H37.2845L33.4372 24.9035Z" fill="#BCBCBC"/>
<path d="M55.7373 1.69403C54.5239 1.21265 52.5994 0.681152 50.2198 0.681152C44.1449 0.681152 39.867 3.9206 39.8408 8.55203C39.7903 11.9691 42.9036 13.867 45.2321 15.0064C47.6121 16.1706 48.4211 16.9305 48.4211 17.9683C48.3969 19.5621 46.4979 20.2968 44.7268 20.2968C42.2708 20.2968 40.9549 19.918 38.955 19.0313L38.145 18.6512L37.2842 23.9917C38.727 24.649 41.3851 25.2323 44.1449 25.2579C50.5996 25.2579 54.8018 22.0686 54.8515 17.133C54.8761 14.4248 53.2321 12.3496 49.6879 10.6538C47.5364 9.56524 46.2187 8.83124 46.2187 7.71745C46.244 6.70491 47.3332 5.66781 49.7619 5.66781C51.7618 5.61702 53.2311 6.09772 54.3443 6.57876L54.9006 6.83139L55.7373 1.69403Z" fill="#BCBCBC"/>
<path d="M63.913 16.4752C64.4196 15.1084 66.369 9.81869 66.369 9.81869C66.3434 9.86948 66.8746 8.4267 67.1784 7.54098L67.6083 9.59095C67.6083 9.59095 68.7732 15.2857 69.0262 16.4752C68.0648 16.4752 65.1281 16.4752 63.913 16.4752ZM71.5064 1.11255H66.7481C65.2808 1.11255 64.166 1.54246 63.5329 3.08649L54.3955 24.9031H60.8502C60.8502 24.9031 61.9128 21.9668 62.1413 21.3344C62.8494 21.3344 69.1284 21.3344 70.0394 21.3344C70.216 22.1696 70.7734 24.9031 70.7734 24.9031H76.4692L71.5064 1.11255Z" fill="#BCBCBC"/>
<path d="M22.1482 1.11255L16.1237 17.3357L15.4654 14.0454C14.3516 10.2489 10.8586 6.1241 6.96045 4.07313L12.4786 24.8782H18.9837L28.653 1.11255H22.1482Z" fill="#BCBCBC"/>
<path d="M10.5288 1.11255H0.631527L0.530273 1.59325C8.25079 3.56753 13.3639 8.32646 15.4647 14.0465L13.3131 3.11239C12.9589 1.59292 11.8704 1.16267 10.5288 1.11255Z" fill="#D9D9D9"/>
</svg>
